<svg width="126" height="30" viewBox="0 0 126 30" fill="none" xmlns="http://www.w3.org/2000/svg">
<g clip-path="url(#clip0_1_128)">
<path d="M13.9659 5.66702C12.9093 5.66702 12.1729 5.16543 11.7567 4.16222C10.2199 4.16222 8.53362 4.53575 6.69797 5.28282C5.55602 5.7524 4.78761 6.18463 4.39273 6.57951C3.99785 6.97439 3.78709 7.28388 3.76041 7.508C3.73373 7.73212 3.84313 7.92156 4.08859 8.07631C4.33406 8.23106 4.67822 8.3778 5.12112 8.51654C5.56403 8.65528 6.07897 8.79402 6.66595 8.93277C9.73961 9.64782 11.6873 10.1441 12.5091 10.4216C14.1419 10.9659 15.3639 11.5635 16.175 12.2145C16.9434 12.8655 17.3276 13.7513 17.3276 14.8719C17.3276 15.8004 17.0422 16.5848 16.4712 17.2252C15.9002 17.8655 15.1451 18.4365 14.206 18.9381C13.2668 19.4397 12.2183 19.8853 11.0603 20.2748C9.90235 20.6644 8.68037 20.9979 7.39435 21.2753C6.10832 21.5528 4.84099 21.7823 3.59232 21.9637C1.14833 22.3052 -0.938093 22.476 -2.66702 22.476C-5.81538 22.476 -8.24331 22.0971 -9.9509 21.3394C-10.5912 21.0512 -11.1142 20.3309 -11.5197 19.1782C-11.8399 18.2284 -12 17.4466 -12 16.833C-12 16.2193 -11.9466 15.8805 -11.8399 15.8164C-11.7332 15.7524 -11.5144 15.7497 -11.1836 15.8084C-10.8527 15.8671 -10.4205 15.9658 -9.88687 16.1046L-7.96585 16.6169C-4.98825 17.3639 -1.83993 17.7375 1.47919 17.7375C3.92317 17.7375 5.99358 17.5187 7.69049 17.0811C8.6937 16.8143 9.22732 16.5155 9.29135 16.1846C9.33404 15.8965 8.54429 15.539 6.92209 15.1121C6.18569 14.9093 5.33191 14.6958 4.36072 14.4717C-0.345816 13.3298 -3.18463 12.5934 -4.15582 12.2625C-5.12701 11.9317 -5.75934 11.6382 -6.05283 11.3821C-6.34632 11.1259 -6.58912 10.8431 -6.78122 10.5336C-7.13341 9.92529 -7.30951 9.34632 -7.30951 8.79669C-7.30951 8.24706 -7.28017 7.82284 -7.22147 7.52401C-7.16277 7.22519 -7.08005 6.94771 -6.97333 6.69157C-6.74921 6.16862 -6.46639 5.8111 -6.12488 5.619C-3.38207 4.08217 0.646717 2.73213 5.96158 1.56884C10.6895 0.52294 14.5795 0 17.6318 0C18.2508 0 18.715 0.106723 19.0245 0.320171C19.5582 0.715051 19.7929 1.1366 19.7289 1.58484C19.6649 2.03309 19.5288 2.44664 19.3207 2.82551C19.1126 3.20438 18.8538 3.54589 18.5443 3.85005C18.2348 4.15422 17.8906 4.42103 17.5117 4.65048C17.1329 4.87994 16.7407 5.06937 16.3351 5.21878C15.524 5.51761 14.7343 5.66702 13.9659 5.66702ZM26.0203 17.7695C26.3725 17.6201 26.8634 17.3853 27.4931 17.0651C31.3458 15.0907 33.4589 14.0021 33.8325 13.7994L34.5048 13.4312C35.1985 12.9829 35.5187 12.6307 35.4653 12.3746C35.3479 11.8303 35.0544 11.6089 34.5848 11.7102C34.1153 11.8116 33.627 11.9477 33.1201 12.1185C32.6131 12.2892 32.0768 12.4973 31.5112 12.7428C30.3266 13.2337 29.286 13.7246 28.3895 14.2156C25.2518 16.0192 23.3629 17.1131 22.7225 17.4973C22.2636 18.5326 21.8527 19.5624 21.4899 20.587L19.5528 26.0619C18.9445 27.7588 18.3309 28.9061 17.7119 29.5037C17.381 29.8346 17.0128 30 16.6073 30C15.6041 30 14.8143 29.6505 14.238 28.9514C13.6617 28.2524 13.3735 27.3666 13.3735 26.294C13.3735 25.2214 13.5123 24.1649 13.7898 23.1243C14.0672 22.0838 14.4515 21.0299 14.9424 19.9626C15.9349 17.8068 17.2636 15.7951 18.9285 13.9274C19.9424 11.206 21.6286 8.56458 23.9872 6.0032C25.428 4.44503 26.7673 3.34579 28.0053 2.70544C28.6243 2.38527 29.1526 2.22519 29.5902 2.22519C30.0277 2.22519 30.3586 2.3239 30.5827 2.52134C30.8068 2.71878 30.9189 2.96424 30.9189 3.25774C30.9189 3.55123 30.8282 3.92209 30.6468 4.37033C30.4653 4.81857 30.2198 5.32017 29.9103 5.87513C29.6008 6.4301 29.238 7.02241 28.8218 7.65208L27.4931 9.58912C27.3863 9.7492 27.333 9.89327 27.333 10.0213C27.333 10.2241 27.4557 10.3255 27.7012 10.3255C27.9787 10.3255 28.4909 10.1494 29.238 9.79723L31.7993 8.61259C34.0406 7.59872 36.1857 7.09178 38.2348 7.09178C39.302 7.09178 40.3052 7.59872 41.2444 8.61259C42.1942 9.63715 42.6692 10.7364 42.6692 11.9104C42.6692 13.7247 41.9274 15.1227 40.444 16.1046L38.4589 17.4173C37.7439 17.8655 37.0075 18.3084 36.2497 18.746L33.9445 20.0107C31.3511 21.3554 29.3474 22.0277 27.9333 22.0277C26.5192 22.0277 25.492 21.8517 24.8517 21.4995C24.2113 21.1473 23.8911 20.651 23.8911 20.0107C23.8911 19.1462 24.6008 18.3992 26.0203 17.7695ZM59.174 11.9104C59.174 12.4867 59.6649 12.7748 60.6468 12.7748C61.3725 12.7748 62.3223 12.4226 63.4963 11.7183L64.7769 11.0139C65.1718 10.7898 65.516 10.6777 65.8095 10.6777C66.103 10.6777 66.3351 10.7684 66.5059 10.9498C66.6766 11.1313 66.762 11.3821 66.762 11.7022C66.762 12.0224 66.6553 12.3933 66.4418 12.8148C66.2284 13.2364 65.9349 13.6793 65.5614 14.1435C65.1878 14.6078 64.7503 15.0667 64.2487 15.5203C63.7471 15.9739 63.2081 16.3821 62.6318 16.7449C61.3511 17.5454 60.1611 17.9456 59.0619 17.9456C57.8986 17.9456 56.9701 17.7481 56.2764 17.3533C56.063 17.2252 55.8548 17.0918 55.6521 16.953C54.5101 18.2551 52.8559 19.4504 50.6894 20.539C48.3842 21.6916 46.3725 22.2679 44.6542 22.2679C42.8506 22.2679 41.4258 21.5582 40.3799 20.1387C39.5368 18.9861 39.1153 17.8175 39.1153 16.6329C39.1153 14.9253 40.0277 13.2978 41.8527 11.7503C43.1974 10.619 44.4968 9.75988 45.7508 9.17289C47.0048 8.58591 48.1387 8.13234 49.1526 7.81217C51.2978 7.13981 53.2294 6.80363 54.9477 6.80363C55.7161 6.80363 56.4018 6.95037 57.0048 7.24386C57.6078 7.53735 58.0534 7.83351 58.3415 8.13234C59.0246 8.8047 59.3661 9.66382 59.3661 10.7097C59.3661 11.0192 59.3341 11.2593 59.27 11.4301C59.206 11.6009 59.174 11.7609 59.174 11.9104ZM46.079 14.936L46.063 14.984V15C46.063 15.4589 46.1643 15.7577 46.3671 15.8965C46.8581 16.1953 47.3757 16.2727 47.92 16.1286C48.4642 15.9845 48.9818 15.8058 49.4728 15.5923C50.6894 15.0694 51.7887 14.4077 52.7705 13.6073C52.5998 13.2657 52.5144 12.9136 52.5144 12.5507C52.5144 11.7823 52.8506 11.0139 53.5229 10.2455C52.6692 10.2455 51.5165 10.6457 50.0651 11.4461C48.4642 12.3319 47.2636 13.2444 46.4632 14.1836C46.207 14.5037 46.079 14.7545 46.079 14.936ZM80.9456 11.9104C80.9456 12.4867 81.4365 12.7748 82.4184 12.7748C83.1441 12.7748 84.0939 12.4226 85.2679 11.7183L86.5486 11.0139C86.9434 10.7898 87.2876 10.6777 87.5811 10.6777C87.8746 10.6777 88.1067 10.7684 88.2775 10.9498C88.4482 11.1313 88.5336 11.3821 88.5336 11.7022C88.5336 12.0224 88.4269 12.3933 88.2134 12.8148C88 13.2364 87.7065 13.6793 87.333 14.1435C86.9594 14.6078 86.5219 15.0667 86.0203 15.5203C85.5187 15.9739 84.9797 16.3821 84.4034 16.7449C83.1227 17.5454 81.9328 17.9456 80.8335 17.9456C79.6702 17.9456 78.7417 17.7481 78.048 17.3533C77.8346 17.2252 77.6265 17.0918 77.4237 16.953C76.2818 18.2551 74.6276 19.4504 72.4611 20.539C70.1558 21.6916 68.1441 22.2679 66.4258 22.2679C64.6222 22.2679 63.1974 21.5582 62.1516 20.1387C61.3084 18.9861 60.8869 17.8175 60.8869 16.6329C60.8869 14.9253 61.7993 13.2978 63.6243 11.7503C64.9691 10.619 66.2684 9.75988 67.5224 9.17289C68.7764 8.58591 69.9103 8.13234 70.9242 7.81217C73.0694 7.13981 75.0011 6.80363 76.7193 6.80363C77.4877 6.80363 78.1734 6.95037 78.7764 7.24386C79.3794 7.53735 79.825 7.83351 80.1131 8.13234C80.7962 8.8047 81.1377 9.66382 81.1377 10.7097C81.1377 11.0192 81.1057 11.2593 81.0416 11.4301C80.9776 11.6009 80.9456 11.7609 80.9456 11.9104ZM67.8506 14.936L67.8346 14.984V15C67.8346 15.4589 67.936 15.7577 68.1387 15.8965C68.6297 16.1953 69.1473 16.2727 69.6916 16.1286C70.2359 15.9845 70.7535 15.8058 71.2444 15.5923C72.461 15.0694 73.5603 14.4077 74.5421 13.6073C74.3714 13.2657 74.286 12.9136 74.286 12.5507C74.286 11.7823 74.6222 11.0139 75.2946 10.2455C74.4408 10.2455 73.2881 10.6457 71.8367 11.4461C70.2358 12.3319 69.0352 13.2444 68.2348 14.1836C67.9787 14.5037 67.8506 14.7545 67.8506 14.936ZM103.566 13.175C103.566 14.1462 103.848 14.6318 104.414 14.6318C105.802 14.6318 107.605 13.6926 109.825 11.8143L110.257 11.4461C111.122 10.8698 111.823 10.5816 112.362 10.5816C112.901 10.5816 113.243 10.6617 113.387 10.8218C113.531 10.9819 113.603 11.238 113.603 11.5902C113.603 12.3799 113.203 13.2177 112.402 14.1035C111.207 15.555 109.569 16.9317 107.488 18.2337C105.076 19.7492 102.915 20.5069 101.004 20.5069C99.6702 20.5069 98.8325 19.7652 98.4909 18.2817C98.3949 17.8975 98.3255 17.5294 98.2828 17.1772C98.1761 16.3234 98.064 15.8485 97.9466 15.7524C97.8292 15.6563 97.5971 15.6644 97.2503 15.7764C96.9034 15.8885 96.4925 16.0752 96.0176 16.3367C95.5427 16.5982 95.0171 16.9157 94.4408 17.2892C91.3885 19.317 89.6329 20.4749 89.174 20.7631C88.0747 21.4461 87.333 21.7876 86.9488 21.7876C86.5646 21.7876 86.1884 21.7076 85.8202 21.5475C85.452 21.3874 85.1291 21.1846 84.8517 20.9392C84.2753 20.3949 83.9872 19.8399 83.9872 19.2743C83.9872 16.0405 84.6916 13.2124 86.1003 10.7898C87.0395 9.15687 88.1921 8.02561 89.5582 7.39594C90.2519 7.0651 90.9989 6.89968 91.7993 6.89968C93.2615 6.89968 93.9925 7.37993 93.9925 8.34045C93.9925 8.92743 93.6457 9.88793 92.952 11.222L92.4717 12.1665C92.1302 12.8175 91.9648 13.1857 91.9755 13.2711C92.0395 13.5912 92.1836 13.7513 92.4077 13.7513C92.6532 13.7513 93.016 13.5699 93.4963 13.207L96.4418 11.0139L97.9146 9.98933C99.6115 8.8794 100.86 8.32444 101.661 8.32444C102.088 8.32444 102.477 8.49519 102.829 8.83671C103.48 9.45571 103.806 9.99466 103.806 10.4536C103.806 10.603 103.792 10.7844 103.766 10.9979C103.739 11.2113 103.71 11.4408 103.678 11.6862L103.614 12.4386C103.582 12.6948 103.566 12.9402 103.566 13.175Z" fill="white"/>
</g>
<defs>
<clipPath id="clip0_1_128">
<rect width="126" height="30" fill="white"/>
</clipPath>
</defs>
</svg>
